<svg width="424" height="85" viewBox="0 0 424 85" fill="none" xmlns="http://www.w3.org/2000/svg">
<mask id="path-1-outside-1_1_4" maskUnits="userSpaceOnUse" x="0" y="0" width="424" height="85" fill="black">
<rect fill="white" width="424" height="85"/>
<path d="M68.2334 5.35205L48.0186 40.1104L68.1211 82H42.5156L25.1646 39.6611L44.8179 5.35205H68.2334ZM24.4907 5.35205V82H1.69287V5.35205H24.4907ZM95.355 26.0161V82H74.354V26.0161H95.355ZM84.9106 1.02832C87.7557 1.02832 90.2077 2.03906 92.2666 4.06055C94.363 6.0446 95.4111 8.40299 95.4111 11.1357C95.4111 14.0557 94.4191 16.4515 92.4351 18.3232C90.4884 20.195 87.9803 21.1309 84.9106 21.1309C81.841 21.1309 79.3141 20.195 77.3301 18.3232C75.3835 16.4515 74.4102 14.0557 74.4102 11.1357C74.4102 8.40299 75.4396 6.0446 77.4985 4.06055C79.5949 2.03906 82.0656 1.02832 84.9106 1.02832ZM157.628 82H136.627V50.3862C136.627 47.1668 135.298 45.5571 132.64 45.5571C130.02 45.5571 128.709 47.1668 128.709 50.3862V82H107.708V50.7793C107.708 43.4795 110.123 37.3402 114.952 32.3613C119.781 27.3451 125.696 24.8369 132.696 24.8369C140.707 24.8369 147.127 27.7381 151.957 33.5405C155.737 38.0701 157.628 44.3779 157.628 52.4639V82ZM205.021 26.8022V48.9263C202.063 48.9263 200.023 49.4878 198.9 50.6108C197.814 51.6965 197.122 53.8677 196.822 57.1245C195.849 67.9432 191.656 75.5799 184.244 80.0347C180.313 82.3556 174.736 83.5161 167.511 83.5161H164.591V61.2798H165.545C168.915 61.2798 171.31 60.5872 172.733 59.2021C174.193 57.7796 175.035 55.3089 175.26 51.79C175.559 46.0625 176.083 42.0382 176.832 39.7173C177.618 37.3963 179.19 35.0941 181.549 32.8105C185.667 28.805 191.375 26.8022 198.675 26.8022H205.021ZM211.927 82V26.7461C211.927 19.8955 214.005 14.299 218.16 9.95654C222.315 5.6141 227.706 3.44287 234.332 3.44287C242.193 3.44287 248.239 7.05534 252.469 14.2803C255.052 10.387 257.822 7.61686 260.78 5.96973C263.737 4.28516 267.387 3.44287 271.729 3.44287C278.618 3.44287 283.896 5.6141 287.564 9.95654C291.233 14.299 293.067 20.5506 293.067 28.7114V82H270.27V32.1367C270.27 29.666 270.064 28.0376 269.652 27.2515C269.278 26.4279 268.491 26.0161 267.293 26.0161C265.047 26.0161 263.924 27.9253 263.924 31.7437V82H241.126V32.1367C241.126 29.7035 240.921 28.075 240.509 27.2515C240.097 26.4279 239.292 26.0161 238.094 26.0161C235.848 26.0161 234.725 28.0563 234.725 32.1367V82H211.927ZM336.473 60.999V82.73C334.751 83.0295 333.179 83.1792 331.756 83.1792C323.333 83.1792 316.314 80.409 310.699 74.8687C305.084 69.3283 302.276 62.3841 302.276 54.0361C302.276 45.9128 305.103 39.0247 310.755 33.3721C316.445 27.7194 323.352 24.8931 331.476 24.8931C340.535 24.8931 347.666 27.5509 352.87 32.8667C358.111 38.145 360.731 45.37 360.731 54.5415V82H339.73V56.0576C339.73 53.1003 339 50.7419 337.54 48.9824C336.118 47.223 334.19 46.3433 331.756 46.3433C329.548 46.3433 327.639 47.1481 326.029 48.7578C324.419 50.3675 323.614 52.2767 323.614 54.4854C323.614 56.8063 324.344 58.7155 325.804 60.2129C327.264 61.7103 329.117 62.459 331.363 62.459C333.198 62.459 334.901 61.9723 336.473 60.999ZM422.892 82H401.891V50.3862C401.891 47.1668 400.562 45.5571 397.904 45.5571C395.283 45.5571 393.973 47.1668 393.973 50.3862V82H372.972V50.7793C372.972 43.4795 375.387 37.3402 380.216 32.3613C385.045 27.3451 390.96 24.8369 397.96 24.8369C405.971 24.8369 412.391 27.7381 417.22 33.5405C421.001 38.0701 422.892 44.3779 422.892 52.4639V82Z"/>
</mask>
<path d="M68.2334 5.35205L48.0186 40.1104L68.1211 82H42.5156L25.1646 39.6611L44.8179 5.35205H68.2334ZM24.4907 5.35205V82H1.69287V5.35205H24.4907ZM95.355 26.0161V82H74.354V26.0161H95.355ZM84.9106 1.02832C87.7557 1.02832 90.2077 2.03906 92.2666 4.06055C94.363 6.0446 95.4111 8.40299 95.4111 11.1357C95.4111 14.0557 94.4191 16.4515 92.4351 18.3232C90.4884 20.195 87.9803 21.1309 84.9106 21.1309C81.841 21.1309 79.3141 20.195 77.3301 18.3232C75.3835 16.4515 74.4102 14.0557 74.4102 11.1357C74.4102 8.40299 75.4396 6.0446 77.4985 4.06055C79.5949 2.03906 82.0656 1.02832 84.9106 1.02832ZM157.628 82H136.627V50.3862C136.627 47.1668 135.298 45.5571 132.64 45.5571C130.02 45.5571 128.709 47.1668 128.709 50.3862V82H107.708V50.7793C107.708 43.4795 110.123 37.3402 114.952 32.3613C119.781 27.3451 125.696 24.8369 132.696 24.8369C140.707 24.8369 147.127 27.7381 151.957 33.5405C155.737 38.0701 157.628 44.3779 157.628 52.4639V82ZM205.021 26.8022V48.9263C202.063 48.9263 200.023 49.4878 198.9 50.6108C197.814 51.6965 197.122 53.8677 196.822 57.1245C195.849 67.9432 191.656 75.5799 184.244 80.0347C180.313 82.3556 174.736 83.5161 167.511 83.5161H164.591V61.2798H165.545C168.915 61.2798 171.31 60.5872 172.733 59.2021C174.193 57.7796 175.035 55.3089 175.26 51.79C175.559 46.0625 176.083 42.0382 176.832 39.7173C177.618 37.3963 179.19 35.0941 181.549 32.8105C185.667 28.805 191.375 26.8022 198.675 26.8022H205.021ZM211.927 82V26.7461C211.927 19.8955 214.005 14.299 218.16 9.95654C222.315 5.6141 227.706 3.44287 234.332 3.44287C242.193 3.44287 248.239 7.05534 252.469 14.2803C255.052 10.387 257.822 7.61686 260.78 5.96973C263.737 4.28516 267.387 3.44287 271.729 3.44287C278.618 3.44287 283.896 5.6141 287.564 9.95654C291.233 14.299 293.067 20.5506 293.067 28.7114V82H270.27V32.1367C270.27 29.666 270.064 28.0376 269.652 27.2515C269.278 26.4279 268.491 26.0161 267.293 26.0161C265.047 26.0161 263.924 27.9253 263.924 31.7437V82H241.126V32.1367C241.126 29.7035 240.921 28.075 240.509 27.2515C240.097 26.4279 239.292 26.0161 238.094 26.0161C235.848 26.0161 234.725 28.0563 234.725 32.1367V82H211.927ZM336.473 60.999V82.73C334.751 83.0295 333.179 83.1792 331.756 83.1792C323.333 83.1792 316.314 80.409 310.699 74.8687C305.084 69.3283 302.276 62.3841 302.276 54.0361C302.276 45.9128 305.103 39.0247 310.755 33.3721C316.445 27.7194 323.352 24.8931 331.476 24.8931C340.535 24.8931 347.666 27.5509 352.87 32.8667C358.111 38.145 360.731 45.37 360.731 54.5415V82H339.73V56.0576C339.73 53.1003 339 50.7419 337.54 48.9824C336.118 47.223 334.19 46.3433 331.756 46.3433C329.548 46.3433 327.639 47.1481 326.029 48.7578C324.419 50.3675 323.614 52.2767 323.614 54.4854C323.614 56.8063 324.344 58.7155 325.804 60.2129C327.264 61.7103 329.117 62.459 331.363 62.459C333.198 62.459 334.901 61.9723 336.473 60.999ZM422.892 82H401.891V50.3862C401.891 47.1668 400.562 45.5571 397.904 45.5571C395.283 45.5571 393.973 47.1668 393.973 50.3862V82H372.972V50.7793C372.972 43.4795 375.387 37.3402 380.216 32.3613C385.045 27.3451 390.96 24.8369 397.96 24.8369C405.971 24.8369 412.391 27.7381 417.22 33.5405C421.001 38.0701 422.892 44.3779 422.892 52.4639V82Z" fill="black"/>
<path d="M68.2334 5.35205L69.0978 5.85479L69.9718 4.35205H68.2334V5.35205ZM48.0186 40.1104L47.1541 39.6076L46.8878 40.0655L47.117 40.543L48.0186 40.1104ZM68.1211 82V83H69.7102L69.0227 81.5673L68.1211 82ZM42.5156 82L41.5903 82.3792L41.8447 83H42.5156V82ZM25.1646 39.6611L24.2968 39.1641L24.0539 39.5881L24.2392 40.0403L25.1646 39.6611ZM44.8179 5.35205V4.35205H44.2383L43.9502 4.85499L44.8179 5.35205ZM24.4907 5.35205H25.4907V4.35205H24.4907V5.35205ZM24.4907 82V83H25.4907V82H24.4907ZM1.69287 82H0.692871V83H1.69287V82ZM1.69287 5.35205V4.35205H0.692871V5.35205H1.69287ZM68.2334 5.35205L67.369 4.84931L47.1541 39.6076L48.0186 40.1104L48.883 40.6131L69.0978 5.85479L68.2334 5.35205ZM48.0186 40.1104L47.117 40.543L67.2195 82.4327L68.1211 82L69.0227 81.5673L48.9201 39.6777L48.0186 40.1104ZM68.1211 82V81H42.5156V82V83H68.1211V82ZM42.5156 82L43.4409 81.6208L26.0899 39.2819L25.1646 39.6611L24.2392 40.0403L41.5903 82.3792L42.5156 82ZM25.1646 39.6611L26.0323 40.1582L45.6856 5.84911L44.8179 5.35205L43.9502 4.85499L24.2968 39.1641L25.1646 39.6611ZM44.8179 5.35205V6.35205H68.2334V5.35205V4.35205H44.8179V5.35205ZM24.4907 5.35205H23.4907V82H24.4907H25.4907V5.35205H24.4907ZM24.4907 82V81H1.69287V82V83H24.4907V82ZM1.69287 82H2.69287V5.35205H1.69287H0.692871V82H1.69287ZM1.69287 5.35205V6.35205H24.4907V5.35205V4.35205H1.69287V5.35205ZM95.355 26.0161H96.355V25.0161H95.355V26.0161ZM95.355 82V83H96.355V82H95.355ZM74.354 82H73.354V83H74.354V82ZM74.354 26.0161V25.0161H73.354V26.0161H74.354ZM92.2666 4.06055L91.566 4.77411L91.5726 4.78054L91.5792 4.78684L92.2666 4.06055ZM92.4351 18.3232L91.7488 17.5958L91.7419 17.6024L92.4351 18.3232ZM77.3301 18.3232L76.6369 19.0441L76.6439 19.0506L77.3301 18.3232ZM77.4985 4.06055L78.1924 4.78062L78.1927 4.78039L77.4985 4.06055ZM95.355 26.0161H94.355V82H95.355H96.355V26.0161H95.355ZM95.355 82V81H74.354V82V83H95.355V82ZM74.354 82H75.354V26.0161H74.354H73.354V82H74.354ZM74.354 26.0161V27.0161H95.355V26.0161V25.0161H74.354V26.0161ZM84.9106 1.02832V2.02832C87.4895 2.02832 89.6911 2.93329 91.566 4.77411L92.2666 4.06055L92.9672 3.34698C90.7243 1.14483 88.0219 0.0283203 84.9106 0.0283203V1.02832ZM92.2666 4.06055L91.5792 4.78684C93.4886 6.59392 94.4111 8.69461 94.4111 11.1357H95.4111H96.4111C96.4111 8.11138 95.2373 5.49527 92.954 3.33425L92.2666 4.06055ZM95.4111 11.1357H94.4111C94.4111 13.802 93.5174 15.9274 91.7488 17.5958L92.4351 18.3232L93.1213 19.0506C95.3208 16.9756 96.4111 14.3093 96.4111 11.1357H95.4111ZM92.4351 18.3232L91.7419 17.6024C90.0075 19.2702 87.7601 20.1309 84.9106 20.1309V21.1309V22.1309C88.2005 22.1309 90.9694 21.1198 93.1282 19.0441L92.4351 18.3232ZM84.9106 21.1309V20.1309C82.0615 20.1309 79.791 19.2701 78.0163 17.5958L77.3301 18.3232L76.6439 19.0506C78.8372 21.1199 81.6205 22.1309 84.9106 22.1309V21.1309ZM77.3301 18.3232L78.0232 17.6024C76.2897 15.9356 75.4102 13.8082 75.4102 11.1357H74.4102H73.4102C73.4102 14.3031 74.4773 16.9674 76.637 19.0441L77.3301 18.3232ZM74.4102 11.1357H75.4102C75.4102 8.68841 76.319 6.58597 78.1924 4.78062L77.4985 4.06055L76.8046 3.34047C74.5603 5.50323 73.4102 8.11758 73.4102 11.1357H74.4102ZM77.4985 4.06055L78.1927 4.78039C80.1075 2.93391 82.3312 2.02832 84.9106 2.02832V1.02832V0.0283203C81.7999 0.0283203 79.0822 1.14422 76.8044 3.3407L77.4985 4.06055ZM157.628 82V83H158.628V82H157.628ZM136.627 82H135.627V83H136.627V82ZM128.709 82V83H129.709V82H128.709ZM107.708 82H106.708V83H107.708V82ZM114.952 32.3613L115.67 33.0576L115.673 33.0549L114.952 32.3613ZM151.957 33.5405L151.188 34.1802L151.189 34.1813L151.957 33.5405ZM157.628 82V81H136.627V82V83H157.628V82ZM136.627 82H137.627V50.3862H136.627H135.627V82H136.627ZM136.627 50.3862H137.627C137.627 48.664 137.275 47.1864 136.401 46.1278C135.497 45.0324 134.179 44.5571 132.64 44.5571V45.5571V46.5571C133.759 46.5571 134.434 46.8867 134.859 47.4011C135.314 47.9521 135.627 48.889 135.627 50.3862H136.627ZM132.64 45.5571V44.5571C131.115 44.5571 129.81 45.0356 128.917 46.1331C128.055 47.1913 127.709 48.6666 127.709 50.3862H128.709H129.709C129.709 48.8864 130.019 47.9472 130.468 47.3957C130.885 46.8835 131.545 46.5571 132.64 46.5571V45.5571ZM128.709 50.3862H127.709V82H128.709H129.709V50.3862H128.709ZM128.709 82V81H107.708V82V83H128.709V82ZM107.708 82H108.708V50.7793H107.708H106.708V82H107.708ZM107.708 50.7793H108.708C108.708 43.7243 111.032 37.8393 115.67 33.0576L114.952 32.3613L114.234 31.6651C109.214 36.8411 106.708 43.2346 106.708 50.7793H107.708ZM114.952 32.3613L115.673 33.0549C120.312 28.2356 125.966 25.8369 132.696 25.8369V24.8369V23.8369C125.426 23.8369 119.25 26.4545 114.232 31.6678L114.952 32.3613ZM132.696 24.8369V25.8369C140.431 25.8369 146.562 28.6216 151.188 34.1802L151.957 33.5405L152.725 32.9008C147.693 26.8546 140.984 23.8369 132.696 23.8369V24.8369ZM151.957 33.5405L151.189 34.1813C154.772 38.4744 156.628 44.5257 156.628 52.4639H157.628H158.628C158.628 44.2302 156.703 37.6659 152.724 32.8997L151.957 33.5405ZM157.628 52.4639H156.628V82H157.628H158.628V52.4639H157.628ZM205.021 26.8022H206.021V25.8022H205.021V26.8022ZM205.021 48.9263V49.9263H206.021V48.9263H205.021ZM198.9 50.6108L199.607 51.3179L198.9 50.6108ZM196.822 57.1245L195.826 57.0329L195.826 57.0349L196.822 57.1245ZM184.244 80.0347L184.753 80.8958L184.759 80.8918L184.244 80.0347ZM164.591 83.5161H163.591V84.5161H164.591V83.5161ZM164.591 61.2798V60.2798H163.591V61.2798H164.591ZM172.733 59.2021L173.431 59.9186L173.431 59.9184L172.733 59.2021ZM175.26 51.79L176.258 51.8537L176.258 51.8423L175.26 51.79ZM176.832 39.7173L175.885 39.3965L175.883 39.4034L175.88 39.4103L176.832 39.7173ZM181.549 32.8105L182.244 33.529L182.246 33.5274L181.549 32.8105ZM205.021 26.8022H204.021V48.9263H205.021H206.021V26.8022H205.021ZM205.021 48.9263V47.9263C202.003 47.9263 199.611 48.4858 198.193 49.9037L198.9 50.6108L199.607 51.3179C200.435 50.4898 202.123 49.9263 205.021 49.9263V48.9263ZM198.9 50.6108L198.193 49.9037C197.496 50.6009 196.987 51.5798 196.614 52.7496C196.238 53.9269 195.98 55.3607 195.826 57.0329L196.822 57.1245L197.818 57.2161C197.964 55.6315 198.202 54.3513 198.519 53.3573C198.838 52.3559 199.219 51.7064 199.607 51.3179L198.9 50.6108ZM196.822 57.1245L195.826 57.0349C194.873 67.6263 190.798 74.9291 183.729 79.1776L184.244 80.0347L184.759 80.8918C192.515 76.2308 196.824 68.2601 197.818 57.2141L196.822 57.1245ZM184.244 80.0347L183.736 79.1736C180.024 81.3652 174.651 82.5161 167.511 82.5161V83.5161V84.5161C174.82 84.5161 180.603 83.346 184.753 80.8958L184.244 80.0347ZM167.511 83.5161V82.5161H164.591V83.5161V84.5161H167.511V83.5161ZM164.591 83.5161H165.591V61.2798H164.591H163.591V83.5161H164.591ZM164.591 61.2798V62.2798H165.545V61.2798V60.2798H164.591V61.2798ZM165.545 61.2798V62.2798C169.005 62.2798 171.727 61.5769 173.431 59.9186L172.733 59.2021L172.035 58.4857C170.893 59.5976 168.824 60.2798 165.545 60.2798V61.2798ZM172.733 59.2021L173.431 59.9184C175.159 58.2346 176.028 55.4544 176.258 51.8537L175.26 51.79L174.262 51.7263C174.042 55.1634 173.227 57.3247 172.035 58.4859L172.733 59.2021ZM175.26 51.79L176.258 51.8423C176.558 46.1164 177.079 42.209 177.784 40.0243L176.832 39.7173L175.88 39.4103C175.088 41.8675 174.561 46.0086 174.261 51.7378L175.26 51.79ZM176.832 39.7173L177.779 40.0381C178.5 37.9101 179.963 35.7378 182.244 33.529L181.549 32.8105L180.853 32.0921C178.418 34.4504 176.736 36.8825 175.885 39.3965L176.832 39.7173ZM181.549 32.8105L182.246 33.5274C186.13 29.7491 191.562 27.8022 198.675 27.8022V26.8022V25.8022C191.189 25.8022 185.203 27.861 180.852 32.0937L181.549 32.8105ZM198.675 26.8022V27.8022H205.021V26.8022V25.8022H198.675V26.8022ZM211.927 82H210.927V83H211.927V82ZM252.469 14.2803L251.606 14.7855L252.416 16.1689L253.303 14.8331L252.469 14.2803ZM260.78 5.96973L261.266 6.8434L261.275 6.83865L260.78 5.96973ZM293.067 82V83H294.067V82H293.067ZM270.27 82H269.27V83H270.27V82ZM269.652 27.2515L268.741 27.6653L268.753 27.6907L268.766 27.7155L269.652 27.2515ZM263.924 82V83H264.924V82H263.924ZM241.126 82H240.126V83H241.126V82ZM234.725 82V83H235.725V82H234.725ZM211.927 82H212.927V26.7461H211.927H210.927V82H211.927ZM211.927 26.7461H212.927C212.927 20.1142 214.931 14.7779 218.883 10.6479L218.16 9.95654L217.438 9.26518C213.079 13.8201 210.927 19.6768 210.927 26.7461H211.927ZM218.16 9.95654L218.883 10.6479C222.829 6.52387 227.948 4.44287 234.332 4.44287V3.44287V2.44287C227.464 2.44287 221.802 4.70432 217.438 9.26518L218.16 9.95654ZM234.332 3.44287V4.44287C241.811 4.44287 247.541 7.84273 251.606 14.7855L252.469 14.2803L253.332 13.775C248.937 6.26795 242.576 2.44287 234.332 2.44287V3.44287ZM252.469 14.2803L253.303 14.8331C255.829 11.0251 258.491 8.38895 261.266 6.84336L260.78 5.96973L260.293 5.09609C257.154 6.84477 254.275 9.74901 251.636 13.7274L252.469 14.2803ZM260.78 5.96973L261.275 6.83865C264.045 5.26056 267.514 4.44287 271.729 4.44287V3.44287V2.44287C267.26 2.44287 263.429 3.30975 260.285 5.10081L260.78 5.96973ZM271.729 3.44287V4.44287C278.391 4.44287 283.362 6.53181 286.801 10.6019L287.564 9.95654L288.328 9.31119C284.43 4.69638 278.844 2.44287 271.729 2.44287V3.44287ZM287.564 9.95654L286.801 10.6019C290.262 14.6994 292.067 20.6859 292.067 28.7114H293.067H294.067C294.067 20.4153 292.204 13.8986 288.328 9.31119L287.564 9.95654ZM293.067 28.7114H292.067V82H293.067H294.067V28.7114H293.067ZM293.067 82V81H270.27V82V83H293.067V82ZM270.27 82H271.27V32.1367H270.27H269.27V82H270.27ZM270.27 32.1367H271.27C271.27 30.8781 271.217 29.8079 271.107 28.9369C271 28.0873 270.828 27.341 270.538 26.7875L269.652 27.2515L268.766 27.7155C268.888 27.9481 269.025 28.409 269.123 29.1878C269.219 29.9453 269.27 30.9246 269.27 32.1367H270.27ZM269.652 27.2515L270.562 26.8377C269.971 25.5369 268.732 25.0161 267.293 25.0161V26.0161V27.0161C268.251 27.0161 268.584 27.3188 268.741 27.6653L269.652 27.2515ZM267.293 26.0161V25.0161C265.822 25.0161 264.649 25.6757 263.905 26.941C263.209 28.1238 262.924 29.7692 262.924 31.7437H263.924H264.924C264.924 29.8998 265.201 28.6814 265.629 27.955C266.007 27.3111 266.519 27.0161 267.293 27.0161V26.0161ZM263.924 31.7437H262.924V82H263.924H264.924V31.7437H263.924ZM263.924 82V81H241.126V82V83H263.924V82ZM241.126 82H242.126V32.1367H241.126H240.126V82H241.126ZM241.126 32.1367H242.126C242.126 30.8961 242.074 29.8355 241.964 28.965C241.856 28.1121 241.685 27.3668 241.403 26.8043L240.509 27.2515L239.614 27.6987C239.745 27.9597 239.882 28.4404 239.98 29.2159C240.076 29.9739 240.126 30.9441 240.126 32.1367H241.126ZM240.509 27.2515L241.403 26.8043C240.769 25.5363 239.536 25.0161 238.094 25.0161V26.0161V27.0161C239.048 27.0161 239.425 27.3195 239.614 27.6987L240.509 27.2515ZM238.094 26.0161V25.0161C237.376 25.0161 236.701 25.1809 236.102 25.5433C235.506 25.9045 235.041 26.4286 234.691 27.064C234.008 28.3048 233.725 30.0375 233.725 32.1367H234.725H235.725C235.725 30.1555 236.003 28.8279 236.443 28.0285C236.655 27.6439 236.892 27.4029 237.138 27.254C237.382 27.1063 237.689 27.0161 238.094 27.0161V26.0161ZM234.725 32.1367H233.725V82H234.725H235.725V32.1367H234.725ZM234.725 82V81H211.927V82V83H234.725V82ZM336.473 60.999H337.473V59.2039L335.947 60.1488L336.473 60.999ZM336.473 82.73L336.644 83.7152L337.473 83.5711V82.73H336.473ZM310.755 33.3721L310.051 32.6626L310.048 32.665L310.755 33.3721ZM352.87 32.8667L352.155 33.5662L352.16 33.5713L352.87 32.8667ZM360.731 82V83H361.731V82H360.731ZM339.73 82H338.73V83H339.73V82ZM337.54 48.9824L336.762 49.6112L336.77 49.621L337.54 48.9824ZM326.029 48.7578L325.322 48.0507L326.029 48.7578ZM336.473 60.999H335.473V82.73H336.473H337.473V60.999H336.473ZM336.473 82.73L336.302 81.7448C334.624 82.0365 333.11 82.1792 331.756 82.1792V83.1792V84.1792C333.248 84.1792 334.878 84.0224 336.644 83.7152L336.473 82.73ZM331.756 83.1792V82.1792C323.577 82.1792 316.816 79.4992 311.402 74.1568L310.699 74.8687L309.997 75.5805C315.813 81.3189 323.09 84.1792 331.756 84.1792V83.1792ZM310.699 74.8687L311.402 74.1568C305.989 68.8162 303.276 62.1339 303.276 54.0361H302.276H301.276C301.276 62.6343 304.179 69.8404 309.997 75.5805L310.699 74.8687ZM302.276 54.0361H303.276C303.276 46.1732 306.001 39.5409 311.462 34.0792L310.755 33.3721L310.048 32.665C304.205 38.5085 301.276 45.6524 301.276 54.0361H302.276ZM310.755 33.3721L311.46 34.0815C316.96 28.6176 323.612 25.8931 331.476 25.8931V24.8931V23.8931C323.092 23.8931 315.931 26.8212 310.051 32.6626L310.755 33.3721ZM331.476 24.8931V25.8931C340.329 25.8931 347.179 28.4832 352.155 33.5662L352.87 32.8667L353.584 32.1672C348.153 26.6187 340.741 23.8931 331.476 23.8931V24.8931ZM352.87 32.8667L352.16 33.5713C357.174 38.6206 359.731 45.5687 359.731 54.5415H360.731H361.731C361.731 45.1712 359.048 37.6694 353.579 32.1621L352.87 32.8667ZM360.731 54.5415H359.731V82H360.731H361.731V54.5415H360.731ZM360.731 82V81H339.73V82V83H360.731V82ZM339.73 82H340.73V56.0576H339.73H338.73V82H339.73ZM339.73 56.0576H340.73C340.73 52.9366 339.958 50.3299 338.31 48.3438L337.54 48.9824L336.77 49.621C338.042 51.1539 338.73 53.2639 338.73 56.0576H339.73ZM337.54 48.9824L338.318 48.3537C336.689 46.3399 334.465 45.3433 331.756 45.3433V46.3433V47.3433C333.914 47.3433 335.546 48.1061 336.762 49.6111L337.54 48.9824ZM331.756 46.3433V45.3433C329.274 45.3433 327.113 46.2599 325.322 48.0507L326.029 48.7578L326.736 49.4649C328.165 48.0363 329.822 47.3433 331.756 47.3433V46.3433ZM326.029 48.7578L325.322 48.0507C323.531 49.8415 322.614 52.0025 322.614 54.4854H323.614H324.614C324.614 52.5509 325.307 50.8935 326.736 49.4649L326.029 48.7578ZM323.614 54.4854H322.614C322.614 57.0359 323.425 59.2056 325.088 60.911L325.804 60.2129L326.52 59.5148C325.263 58.2254 324.614 56.5767 324.614 54.4854H323.614ZM325.804 60.2129L325.088 60.911C326.751 62.6167 328.87 63.459 331.363 63.459V62.459V61.459C329.365 61.459 327.777 60.8038 326.52 59.5148L325.804 60.2129ZM331.363 62.459V63.459C333.385 63.459 335.27 62.9196 336.999 61.8493L336.473 60.999L335.947 60.1488C334.531 61.025 333.01 61.459 331.363 61.459V62.459ZM422.892 82V83H423.892V82H422.892ZM401.891 82H400.891V83H401.891V82ZM393.973 82V83H394.973V82H393.973ZM372.972 82H371.972V83H372.972V82ZM380.216 32.3613L380.934 33.0576L380.936 33.0549L380.216 32.3613ZM417.22 33.5405L416.452 34.1802L416.453 34.1813L417.22 33.5405ZM422.892 82V81H401.891V82V83H422.892V82ZM401.891 82H402.891V50.3862H401.891H400.891V82H401.891ZM401.891 50.3862H402.891C402.891 48.664 402.539 47.1864 401.665 46.1278C400.761 45.0324 399.443 44.5571 397.904 44.5571V45.5571V46.5571C399.023 46.5571 399.698 46.8867 400.123 47.4011C400.578 47.9521 400.891 48.889 400.891 50.3862H401.891ZM397.904 45.5571V44.5571C396.379 44.5571 395.074 45.0356 394.18 46.1331C393.319 47.1913 392.973 48.6666 392.973 50.3862H393.973H394.973C394.973 48.8864 395.282 47.9472 395.731 47.3957C396.148 46.8835 396.808 46.5571 397.904 46.5571V45.5571ZM393.973 50.3862H392.973V82H393.973H394.973V50.3862H393.973ZM393.973 82V81H372.972V82V83H393.973V82ZM372.972 82H373.972V50.7793H372.972H371.972V82H372.972ZM372.972 50.7793H373.972C373.972 43.7243 376.296 37.8393 380.934 33.0576L380.216 32.3613L379.498 31.6651C374.478 36.8411 371.972 43.2346 371.972 50.7793H372.972ZM380.216 32.3613L380.936 33.0549C385.576 28.2356 391.23 25.8369 397.96 25.8369V24.8369V23.8369C390.689 23.8369 384.514 26.4545 379.495 31.6678L380.216 32.3613ZM397.96 24.8369V25.8369C405.695 25.8369 411.825 28.6216 416.452 34.1802L417.22 33.5405L417.989 32.9008C412.957 26.8546 406.247 23.8369 397.96 23.8369V24.8369ZM417.22 33.5405L416.453 34.1813C420.036 38.4744 421.892 44.5257 421.892 52.4639H422.892H423.892C423.892 44.2302 421.966 37.6659 417.988 32.8997L417.22 33.5405ZM422.892 52.4639H421.892V82H422.892H423.892V52.4639H422.892Z" fill="black" mask="url(#path-1-outside-1_1_4)"/>
</svg>
